<?xml version="1.0" encoding="UTF-8" standalone="no"?>
<!-- Created with Inkscape (http://www.inkscape.org/) -->

<svg
   xmlns:dc="http://purl.org/dc/elements/1.1/"
   xmlns:cc="http://creativecommons.org/ns#"
   xmlns:rdf="http://www.w3.org/1999/02/22-rdf-syntax-ns#"
   xmlns:svg="http://www.w3.org/2000/svg"
   xmlns="http://www.w3.org/2000/svg"
   xmlns:sodipodi="http://sodipodi.sourceforge.net/DTD/sodipodi-0.dtd"
   xmlns:inkscape="http://www.inkscape.org/namespaces/inkscape"
   width="116.0673mm"
   height="17.75382mm"
   viewBox="0 0 116.0673 17.753819"
   version="1.1"
   id="svg8"
   inkscape:version="0.92.3 (2405546, 2018-03-11)"
   sodipodi:docname="CodaChord-Logo.svg">
  <defs
     id="defs2" />
  <sodipodi:namedview
     id="base"
     pagecolor="#ffffff"
     bordercolor="#666666"
     borderopacity="1.0"
     inkscape:pageopacity="0.0"
     inkscape:pageshadow="2"
     inkscape:zoom="0.7"
     inkscape:cx="444.92589"
     inkscape:cy="93.892502"
     inkscape:document-units="mm"
     inkscape:current-layer="layer1"
     showgrid="false"
     inkscape:measure-start="351.429,450.714"
     inkscape:measure-end="0,0"
     showguides="true"
     inkscape:guide-bbox="true"
     inkscape:lockguides="true"
     inkscape:window-width="1853"
     inkscape:window-height="1025"
     inkscape:window-x="67"
     inkscape:window-y="27"
     inkscape:window-maximized="1"
     fit-margin-top="2"
     fit-margin-left="2"
     fit-margin-right="2"
     fit-margin-bottom="2">
    <sodipodi:guide
       position="129.17336,137.96131"
       orientation="1,0"
       id="guide154"
       inkscape:locked="true" />
    <sodipodi:guide
       position="141.36309,141.93006"
       orientation="0,1"
       id="guide156"
       inkscape:locked="true" />
  </sodipodi:namedview>
  <metadata
     id="metadata5">
    <rdf:RDF>
      <cc:Work
         rdf:about="">
        <dc:format>image/svg+xml</dc:format>
        <dc:type
           rdf:resource="http://purl.org/dc/dcmitype/StillImage" />
        <dc:title></dc:title>
      </cc:Work>
    </rdf:RDF>
  </metadata>
  <g
     inkscape:label="Layer 1"
     inkscape:groupmode="layer"
     id="layer1"
     transform="translate(-66.830346,-141.10317)">
    <flowRoot
       xml:space="preserve"
       id="flowRoot75"
       style="font-style:normal;font-weight:normal;font-size:40px;line-height:125%;font-family:sans-serif;letter-spacing:0px;word-spacing:0px;fill:#000000;fill-opacity:1;stroke:none;stroke-width:1px;stroke-linecap:butt;stroke-linejoin:miter;stroke-opacity:1"
       transform="scale(0.26458333)"><flowRegion
         id="flowRegion77"><rect
           id="rect79"
           width="1155.6145"
           height="787.91901"
           x="569.72601"
           y="1029.5857" /></flowRegion><flowPara
         id="flowPara81" /></flowRoot>    <flowRoot
       xml:space="preserve"
       id="flowRoot84"
       style="font-style:normal;font-weight:normal;font-size:40px;line-height:125%;font-family:sans-serif;letter-spacing:0px;word-spacing:0px;fill:#000000;fill-opacity:1;stroke:none;stroke-width:1px;stroke-linecap:butt;stroke-linejoin:miter;stroke-opacity:1"
       transform="scale(0.26458333)"><flowRegion
         id="flowRegion86"><rect
           id="rect88"
           width="224.25386"
           height="180.81731"
           x="447.49759"
           y="625.52466" /></flowRegion><flowPara
         id="flowPara90" /></flowRoot>    <text
       xml:space="preserve"
       style="font-style:normal;font-weight:normal;font-size:27.55614662px;line-height:125%;font-family:sans-serif;letter-spacing:0px;word-spacing:0px;fill:#000000;fill-opacity:1;stroke:none;stroke-width:0.68890363px;stroke-linecap:butt;stroke-linejoin:miter;stroke-opacity:1"
       x="79.797447"
       y="183.11319"
       id="text126"
       transform="scale(1.1168955,0.89533891)"><tspan
         sodipodi:role="line"
         id="tspan124"
         x="79.797447"
         y="183.11319"
         style="stroke-width:0.68890363px">𝄌</tspan></text>
    <g
       aria-label="daChord}"
       transform="scale(1.1127375,0.89868456)"
       style="font-style:normal;font-variant:normal;font-weight:normal;font-stretch:normal;font-size:158.69914246px;line-height:125%;font-family:'Abyssinica SIL';-inkscape-font-specification:'Abyssinica SIL';letter-spacing:0px;word-spacing:0px;fill:#000000;fill-opacity:1;stroke:none;stroke-width:1.65311599px;stroke-linecap:butt;stroke-linejoin:miter;stroke-opacity:1"
       id="text12">
      <path
         d="m 95.140788,172.23288 v -0.93879 q -0.301446,0.23255 -0.62873,0.44787 -0.318671,0.2067 -0.663181,0.36173 -0.335897,0.15503 -0.697632,0.24977 -0.353122,0.0947 -0.740695,0.0947 -0.887112,0 -1.533068,-0.37896 -0.637343,-0.38757 -1.050754,-0.99046 -0.413411,-0.61151 -0.611504,-1.36082 -0.189481,-0.75792 -0.189481,-1.50723 0,-0.89572 0.275608,-1.73977 0.275608,-0.85266 0.835436,-1.50723 0.559828,-0.65457 1.403876,-1.05075 0.844048,-0.39619 1.98093,-0.39619 0.206706,0 0.447862,0.0258 0.241157,0.0258 0.465088,0.0603 0.232544,0.0258 0.413412,0.0689 0.18948,0.0344 0.292833,0.0603 v -3.22978 h -1.334975 v -0.58566 l 2.273763,-0.68041 h 0.706245 v 11.86835 q 0,0.16365 0.103353,0.267 0.103353,0.10335 0.266995,0.12058 l 0.757921,0.0517 v 0.68902 z m 0,-7.60505 q -0.111966,-0.0344 -0.292833,-0.0775 -0.172255,-0.0517 -0.378961,-0.0861 -0.198093,-0.0431 -0.422024,-0.0689 -0.215318,-0.0258 -0.404799,-0.0258 -0.654568,0 -1.188558,0.25838 -0.533989,0.24977 -0.91295,0.71486 -0.370348,0.45648 -0.577053,1.11105 -0.198093,0.65456 -0.198093,1.45555 0,0.72347 0.172254,1.33497 0.172255,0.60289 0.499539,1.05076 0.327284,0.44786 0.800985,0.69763 0.473701,0.24977 1.085205,0.24977 0.266995,0 0.516764,-0.0517 0.24977,-0.0603 0.482314,-0.14641 0.232544,-0.0947 0.439249,-0.1981 0.206706,-0.11196 0.378961,-0.21532 z"
         style="font-style:normal;font-variant:normal;font-weight:normal;font-stretch:normal;font-size:17.63888931px;line-height:200%;font-family:'Abyssinica SIL';-inkscape-font-specification:'Abyssinica SIL';baseline-shift:super;fill:#000000;stroke-width:1.65311599px"
         id="path164" />
      <path
         d="m 104.45116,172.23288 -0.23254,-1.04214 q -0.46509,0.35312 -0.95602,0.62873 -0.21532,0.12058 -0.45647,0.23255 -0.24116,0.11196 -0.49954,0.19809 -0.24977,0.0947 -0.51677,0.14642 -0.25838,0.0517 -0.51676,0.0517 -0.48232,0 -0.90434,-0.16364 -0.413411,-0.16364 -0.723469,-0.4737 -0.310059,-0.31006 -0.490926,-0.74931 -0.172255,-0.43925 -0.172255,-0.99908 0,-0.32728 0.06029,-0.62011 0.0689,-0.29284 0.266995,-0.56844 0.198093,-0.27561 0.551215,-0.52538 0.361731,-0.25838 0.938791,-0.50815 0.58566,-0.24977 1.4211,-0.49093 0.84405,-0.24977 1.99816,-0.49954 V 166.092 q 0,-0.88711 -0.39619,-1.30914 -0.39619,-0.43063 -1.24885,-0.43063 -0.46509,0 -0.79237,0.0861 -0.32728,0.0861 -0.45648,0.13781 v 1.53307 h -1.28329 q -0.120582,0 -0.24116,-0.0172 -0.111966,-0.0172 -0.206706,-0.0689 -0.09474,-0.0603 -0.155029,-0.15503 -0.05168,-0.10335 -0.05168,-0.267 0,-0.5426 0.327284,-0.93017 0.327287,-0.39619 0.852657,-0.65457 0.52538,-0.25838 1.17995,-0.37896 0.65457,-0.12058 1.30914,-0.12058 0.81821,0 1.3522,0.19809 0.5426,0.1981 0.85266,0.55122 0.31867,0.35312 0.44786,0.83544 0.12919,0.48231 0.12919,1.05936 v 4.94371 q 0,0.16365 0.10335,0.267 0.11197,0.10335 0.267,0.12058 l 0.85266,0.0517 v 0.68902 z m -0.23254,-4.71116 q -1.18856,0.30144 -1.88619,0.59427 -0.69764,0.29284 -1.05937,0.59428 -0.35312,0.29284 -0.45648,0.60289 -0.0947,0.30145 -0.0947,0.62873 0,0.27561 0.0861,0.54261 0.0947,0.25838 0.25838,0.46509 0.17226,0.2067 0.41341,0.33589 0.24977,0.12058 0.56844,0.12058 0.35313,0 0.73209,-0.12919 0.38757,-0.12919 0.70624,-0.28422 0.37035,-0.18087 0.73209,-0.42203 z"
         style="font-style:normal;font-variant:normal;font-weight:normal;font-stretch:normal;font-size:17.63888931px;line-height:200%;font-family:'Abyssinica SIL';-inkscape-font-specification:'Abyssinica SIL';baseline-shift:super;fill:#000000;stroke-width:1.65311599px"
         id="path166" />
      <path
         d="m 117.74061,171.82808 q -0.0345,0.0172 -0.33589,0.1292 -0.30145,0.10335 -0.78376,0.23254 -0.48232,0.12058 -1.11105,0.22393 -0.62011,0.10335 -1.29191,0.10335 -0.99046,0 -1.83451,-0.24115 -0.83544,-0.23255 -1.52445,-0.65457 -0.68041,-0.42203 -1.20579,-1.00769 -0.51676,-0.58567 -0.8785,-1.27469 -0.35312,-0.68902 -0.53399,-1.46416 -0.18086,-0.77515 -0.18086,-1.58475 0,-1.36942 0.44786,-2.5063 0.44786,-1.13688 1.25746,-1.94648 0.8096,-0.81821 1.94648,-1.26608 1.13688,-0.45647 2.52353,-0.45647 0.43064,0 0.82682,0.0517 0.4048,0.0431 0.81821,0.12919 0.41341,0.0861 0.86989,0.21532 0.45647,0.12919 0.99046,0.29283 v 2.76469 h -1.05936 l -0.25839,-1.60197 q -0.0345,-0.14642 -0.12919,-0.24977 -0.0947,-0.11197 -0.17225,-0.15503 l -0.0689,-0.0344 q -0.11197,-0.0517 -0.28422,-0.12058 -0.17226,-0.0775 -0.39619,-0.1378 -0.21532,-0.0689 -0.48231,-0.11197 -0.267,-0.0517 -0.56844,-0.0517 -0.90434,0 -1.67949,0.3359 -0.77514,0.3359 -1.34358,0.99047 -0.56845,0.65456 -0.89573,1.6278 -0.31867,0.96463 -0.31867,2.2307 0,1.23163 0.30144,2.20486 0.31006,0.97324 0.88712,1.65365 0.57705,0.68041 1.40387,1.04214 0.82683,0.35312 1.87758,0.35312 0.31006,0 0.55983,-0.0431 0.25838,-0.0431 0.44786,-0.0947 0.18948,-0.0603 0.29283,-0.10335 0.10336,-0.0517 0.12058,-0.0603 0.13781,-0.0517 0.22393,-0.14642 0.0861,-0.0947 0.11197,-0.2067 l 0.4048,-1.92064 h 1.02491 z"
         style="font-style:normal;font-variant:normal;font-weight:normal;font-stretch:normal;font-size:17.63888931px;line-height:200%;font-family:'Abyssinica SIL';-inkscape-font-specification:'Abyssinica SIL';baseline-shift:super;fill:#000000;stroke-width:1.65311599px"
         id="path168" />
      <path
         d="m 124.21739,172.23288 v -0.68902 l 0.72347,-0.0517 q 0.15503,-0.0172 0.267,-0.12058 0.12058,-0.10335 0.12058,-0.267 v -4.54752 q 0,-0.37896 -0.0861,-0.69763 -0.0775,-0.31867 -0.28422,-0.55122 -0.19809,-0.23254 -0.53399,-0.36173 -0.3359,-0.13781 -0.84405,-0.13781 -0.23254,0 -0.49092,0.0431 -0.25839,0.0345 -0.51677,0.10335 -0.24977,0.0689 -0.49092,0.16364 -0.23255,0.0947 -0.42203,0.19809 v 5.78776 q 0,0.16365 0.0947,0.267 0.0947,0.10335 0.25838,0.12058 l 0.75792,0.0517 v 0.68902 h -3.97047 v -0.68902 l 0.84405,-0.0517 q 0.16364,-0.0172 0.267,-0.12058 0.10335,-0.10335 0.10335,-0.267 v -10.60228 h -1.31775 v -0.58566 l 2.25654,-0.68041 h 0.70624 v 5.37435 q 0.24116,-0.14642 0.59428,-0.3359 0.35312,-0.18948 0.74931,-0.35312 0.4048,-0.17225 0.8096,-0.28422 0.41341,-0.12058 0.75792,-0.12058 0.50815,0 0.93879,0.16364 0.43925,0.16365 0.75792,0.49093 0.32728,0.32728 0.50815,0.83544 0.18948,0.49953 0.18948,1.17994 v 4.91787 q 0,0.16365 0.11196,0.267 0.12058,0.10335 0.27561,0.12058 l 0.79237,0.0517 v 0.68902 z"
         style="font-style:normal;font-variant:normal;font-weight:normal;font-stretch:normal;font-size:17.63888931px;line-height:200%;font-family:'Abyssinica SIL';-inkscape-font-specification:'Abyssinica SIL';baseline-shift:super;fill:#000000;stroke-width:1.65311599px"
         id="path170" />
      <path
         d="m 137.54992,167.99542 q 0,0.93878 -0.30145,1.75699 -0.29283,0.8096 -0.84405,1.41249 -0.5426,0.59428 -1.32636,0.93879 -0.77515,0.34451 -1.73977,0.34451 -0.96463,0 -1.73978,-0.33589 -0.77514,-0.34451 -1.31775,-0.93879 -0.5426,-0.59428 -0.83543,-1.40388 -0.28422,-0.81821 -0.28422,-1.77422 0,-0.93879 0.29283,-1.757 0.29283,-0.81821 0.84405,-1.4211 0.55121,-0.61151 1.32636,-0.95602 0.78376,-0.34451 1.76561,-0.34451 0.98185,0 1.757,0.35312 0.77515,0.35313 1.30914,0.96463 0.53399,0.60289 0.8096,1.4211 0.28422,0.8096 0.28422,1.73978 z m -1.83452,-0.0172 q 0,-0.72347 -0.14641,-1.38665 -0.13781,-0.66318 -0.43064,-1.17133 -0.29283,-0.50815 -0.73208,-0.8096 -0.43925,-0.30145 -1.03353,-0.30145 -0.61151,0 -1.05937,0.30145 -0.44786,0.30145 -0.7407,0.8096 -0.28422,0.50815 -0.42202,1.17133 -0.1378,0.66318 -0.1378,1.38665 0,0.71486 0.1378,1.37804 0.14642,0.66318 0.43925,1.17133 0.29283,0.50815 0.73208,0.81821 0.43925,0.30145 1.03353,0.30145 0.60289,0 1.05076,-0.30145 0.44786,-0.30144 0.73208,-0.8096 0.29283,-0.50815 0.43064,-1.17133 0.14641,-0.66318 0.14641,-1.38665 z"
         style="font-style:normal;font-variant:normal;font-weight:normal;font-stretch:normal;font-size:17.63888931px;line-height:200%;font-family:'Abyssinica SIL';-inkscape-font-specification:'Abyssinica SIL';baseline-shift:super;fill:#000000;stroke-width:1.65311599px"
         id="path172" />
      <path
         d="m 144.19895,165.53217 q -0.17226,-0.19809 -0.39619,-0.33589 -0.22393,-0.14642 -0.55121,-0.14642 -0.43064,0 -0.86989,0.29283 -0.43925,0.28422 -0.89572,0.80099 v 4.96093 q 0,0.16365 0.10335,0.27561 0.10335,0.10336 0.26699,0.11197 l 1.16272,0.0517 v 0.68902 h -4.40972 v -0.67179 l 0.86989,-0.0689 q 0.15503,-0.0172 0.25838,-0.12058 0.11197,-0.10335 0.11197,-0.267 v -6.12365 h -1.27469 v -0.57706 l 2.18764,-0.67179 h 0.72347 v 1.56752 q 0.18948,-0.20671 0.45647,-0.50815 0.27561,-0.31006 0.58567,-0.59428 0.31006,-0.28422 0.63734,-0.48232 0.3359,-0.19809 0.64596,-0.19809 0.1378,0 0.29283,0.0258 0.15503,0.0258 0.30145,0.0689 0.14641,0.0345 0.26699,0.0861 0.12919,0.0431 0.21532,0.0861 v 1.74838 z"
         style="font-style:normal;font-variant:normal;font-weight:normal;font-stretch:normal;font-size:17.63888931px;line-height:200%;font-family:'Abyssinica SIL';-inkscape-font-specification:'Abyssinica SIL';baseline-shift:super;fill:#000000;stroke-width:1.65311599px"
         id="path174" />
      <path
         d="m 151.77816,172.23288 v -0.93879 q -0.30145,0.23255 -0.62873,0.44787 -0.31867,0.2067 -0.66318,0.36173 -0.3359,0.15503 -0.69763,0.24977 -0.35313,0.0947 -0.7407,0.0947 -0.88711,0 -1.53307,-0.37896 -0.63734,-0.38757 -1.05075,-0.99046 -0.41341,-0.61151 -0.61151,-1.36082 -0.18948,-0.75792 -0.18948,-1.50723 0,-0.89572 0.27561,-1.73977 0.27561,-0.85266 0.83544,-1.50723 0.55983,-0.65457 1.40387,-1.05075 0.84405,-0.39619 1.98093,-0.39619 0.20671,0 0.44787,0.0258 0.24115,0.0258 0.46508,0.0603 0.23255,0.0258 0.41342,0.0689 0.18948,0.0344 0.29283,0.0603 v -3.22978 h -1.33498 v -0.58566 l 2.27377,-0.68041 h 0.70624 v 11.86835 q 0,0.16365 0.10335,0.267 0.10336,0.10335 0.267,0.12058 l 0.75792,0.0517 v 0.68902 z m 0,-7.60505 q -0.11197,-0.0344 -0.29283,-0.0775 -0.17226,-0.0517 -0.37896,-0.0861 -0.1981,-0.0431 -0.42203,-0.0689 -0.21532,-0.0258 -0.4048,-0.0258 -0.65457,0 -1.18856,0.25838 -0.53399,0.24977 -0.91295,0.71486 -0.37034,0.45648 -0.57705,1.11105 -0.19809,0.65456 -0.19809,1.45555 0,0.72347 0.17225,1.33497 0.17226,0.60289 0.49954,1.05076 0.32729,0.44786 0.80099,0.69763 0.4737,0.24977 1.0852,0.24977 0.267,0 0.51677,-0.0517 0.24976,-0.0603 0.48231,-0.14641 0.23254,-0.0947 0.43925,-0.1981 0.2067,-0.11196 0.37896,-0.21532 z"
         style="font-style:normal;font-variant:normal;font-weight:normal;font-stretch:normal;font-size:17.63888931px;line-height:200%;font-family:'Abyssinica SIL';-inkscape-font-specification:'Abyssinica SIL';baseline-shift:super;fill:#000000;stroke-width:1.65311599px"
         id="path176" />
      <path
         d="m 162.56992,167.50449 q -0.76653,0 -1.24885,0.0861 -0.48231,0.0861 -0.80098,0.38757 -0.17226,0.16364 -0.27561,0.4048 -0.0947,0.24116 -0.14642,0.51676 -0.0431,0.27561 -0.0603,0.56844 -0.009,0.29284 -0.009,0.56845 v 0.96462 q 0,0.37035 -0.0172,0.73208 -0.0172,0.35313 -0.0947,0.68041 -0.0689,0.3359 -0.21532,0.63734 -0.14642,0.31006 -0.39619,0.57706 -0.22393,0.23254 -0.55121,0.37896 -0.32729,0.14641 -0.73209,0.23254 -0.40479,0.0947 -0.86127,0.12919 -0.45648,0.0344 -0.93018,0.0344 v -0.72347 q 0.11197,0 0.34451,-0.0172 0.23255,-0.0172 0.49954,-0.0689 0.27561,-0.0517 0.53399,-0.16365 0.25838,-0.10335 0.42203,-0.28422 0.1378,-0.15503 0.22393,-0.36173 0.0861,-0.20671 0.12919,-0.45648 0.0517,-0.24115 0.0603,-0.51676 0.0172,-0.27561 0.0172,-0.55983 0,-0.18087 -0.009,-0.36173 0,-0.18087 0,-0.35313 0,-0.30144 0.009,-0.62873 0.0172,-0.33589 0.0689,-0.65456 0.0517,-0.32729 0.14641,-0.62012 0.10336,-0.29283 0.28422,-0.51677 0.35312,-0.44786 0.84405,-0.67179 0.49093,-0.22393 1.03353,-0.34451 -0.27561,-0.0603 -0.53399,-0.1378 -0.25838,-0.0775 -0.49954,-0.18948 -0.24116,-0.12058 -0.45647,-0.28422 -0.21532,-0.16365 -0.38758,-0.38758 -0.18086,-0.22393 -0.28422,-0.51676 -0.0947,-0.29283 -0.14641,-0.61151 -0.0517,-0.32728 -0.0689,-0.65456 -0.009,-0.3359 -0.009,-0.63735 0,-0.17225 0,-0.35312 0.009,-0.18087 0.009,-0.36173 0,-0.28422 -0.0172,-0.55983 -0.009,-0.27561 -0.0603,-0.51677 -0.0431,-0.24977 -0.12919,-0.45647 -0.0861,-0.20671 -0.22393,-0.36174 -0.16365,-0.18086 -0.42203,-0.28422 -0.25838,-0.11196 -0.53399,-0.16364 -0.26699,-0.0517 -0.49954,-0.0689 -0.23254,-0.0172 -0.34451,-0.0172 v -0.72347 q 0.4737,0 0.93018,0.0344 0.45648,0.0345 0.86127,0.1292 0.4048,0.0861 0.73209,0.23254 0.32728,0.14642 0.55121,0.37896 0.24977,0.267 0.39619,0.57705 0.14641,0.30145 0.21532,0.63735 0.0775,0.33589 0.0947,0.68902 0.0172,0.35312 0.0172,0.72347 v 0.96462 q 0,0.27561 0.009,0.56844 0.0172,0.29284 0.0603,0.56844 0.0517,0.27561 0.14642,0.51677 0.10335,0.24116 0.27561,0.4048 0.31867,0.30144 0.80098,0.38757 0.48232,0.0861 1.24885,0.0861 z"
         style="font-style:normal;font-variant:normal;font-weight:normal;font-stretch:normal;font-size:17.63888931px;line-height:200%;font-family:'Abyssinica SIL';-inkscape-font-specification:'Abyssinica SIL';baseline-shift:super;fill:#000000;stroke-width:1.65311599px"
         id="path178" />
    </g>
    <text
       xml:space="preserve"
       style="font-style:normal;font-variant:normal;font-weight:normal;font-stretch:normal;font-size:10.58333302px;line-height:125%;font-family:'Free Serif';-inkscape-font-specification:'Free Serif';letter-spacing:0px;word-spacing:0px;fill:#000000;fill-opacity:1;stroke:none;stroke-width:0.26458332px;stroke-linecap:butt;stroke-linejoin:miter;stroke-opacity:1"
       x="87.931671"
       y="263.32404"
       id="text130"><tspan
         sodipodi:role="line"
         id="tspan128"
         x="87.931671"
         y="273.11362"
         style="stroke-width:0.26458332px" /></text>
    <g
       aria-label="{C"
       transform="scale(1.1127375,0.89868455)"
       style="font-style:normal;font-variant:normal;font-weight:normal;font-stretch:normal;font-size:158.69914246px;line-height:125%;font-family:'Abyssinica SIL';-inkscape-font-specification:'Abyssinica SIL';letter-spacing:0px;word-spacing:0px;fill:#000000;fill-opacity:1;stroke:none;stroke-width:1.65311599px;stroke-linecap:butt;stroke-linejoin:miter;stroke-opacity:1"
       id="text12-3">
      <path
         d="m 68.187131,174.54065 q -0.465088,0 -0.921563,-0.0344 -0.456475,-0.0345 -0.861274,-0.12919 -0.404799,-0.0861 -0.740696,-0.23254 -0.327284,-0.14642 -0.542602,-0.37896 -0.24977,-0.267 -0.396186,-0.57706 -0.146417,-0.30144 -0.223931,-0.63734 -0.0689,-0.32728 -0.08613,-0.68041 -0.01722,-0.36173 -0.01722,-0.73208 v -0.91295 q 0,-0.27561 -0.01723,-0.57705 -0.0086,-0.30145 -0.06029,-0.58567 -0.05168,-0.28422 -0.155029,-0.52538 -0.09474,-0.24976 -0.266995,-0.42202 -0.155029,-0.15503 -0.353122,-0.24116 -0.198093,-0.0947 -0.447863,-0.14641 -0.241156,-0.0517 -0.551215,-0.0689 -0.301446,-0.0172 -0.689019,-0.0172 v -0.79237 q 0.387573,0 0.689019,-0.0172 0.310059,-0.0172 0.551215,-0.0689 0.24977,-0.0517 0.447863,-0.1378 0.198093,-0.0947 0.353122,-0.24977 0.172255,-0.16364 0.266995,-0.41341 0.103353,-0.24977 0.155029,-0.53399 0.05168,-0.28422 0.06029,-0.58567 0.01723,-0.30145 0.01723,-0.57705 v -0.91295 q 0,-0.37035 0.01722,-0.72347 0.01723,-0.35313 0.08613,-0.68902 0.07751,-0.3359 0.223931,-0.63735 0.146416,-0.31005 0.396186,-0.57705 0.215318,-0.23254 0.542602,-0.37896 0.335897,-0.14642 0.740696,-0.23254 0.404799,-0.0947 0.861274,-0.12919 0.456475,-0.0345 0.921563,-0.0345 v 0.72347 q -0.111966,0 -0.34451,0.0172 -0.232544,0.0172 -0.508151,0.0689 -0.266995,0.0517 -0.525377,0.16364 -0.258383,0.10336 -0.422025,0.28422 -0.146416,0.15503 -0.232544,0.37035 -0.07751,0.21532 -0.120578,0.46509 -0.04306,0.24977 -0.06029,0.53399 -0.0086,0.28422 -0.0086,0.57705 v 0.66318 q 0,0.30145 -0.01723,0.63735 -0.0086,0.32728 -0.06029,0.65456 -0.05168,0.31868 -0.15503,0.61151 -0.09474,0.28422 -0.266995,0.50815 -0.180867,0.22393 -0.396186,0.38757 -0.206705,0.16365 -0.447862,0.28422 -0.241157,0.12058 -0.508151,0.1981 -0.258383,0.0775 -0.525377,0.1378 0.542602,0.12058 1.024915,0.34451 0.490926,0.22393 0.852661,0.68041 0.172255,0.22393 0.266995,0.51676 0.103353,0.28422 0.15503,0.61151 0.05168,0.31867 0.06029,0.65456 0.01723,0.32729 0.01723,0.62873 v 0.66318 q 0,0.29284 0.0086,0.57706 0.01722,0.28422 0.06029,0.53399 0.04306,0.24977 0.120578,0.46509 0.08613,0.21531 0.232544,0.37034 0.163642,0.18087 0.422025,0.28422 0.258382,0.11197 0.525377,0.16365 0.275607,0.0517 0.508151,0.0689 0.232544,0.0172 0.34451,0.0172 z"
         style="font-style:normal;font-variant:normal;font-weight:normal;font-stretch:normal;font-size:17.63888741px;line-height:200%;font-family:'Abyssinica SIL';-inkscape-font-specification:'Abyssinica SIL';baseline-shift:super;stroke-width:1.65311599px"
         id="path181" />
      <path
         d="m 79.779876,171.96544 q -0.03445,0.0172 -0.335897,0.1292 -0.301446,0.10335 -0.783759,0.23254 -0.482314,0.12058 -1.111044,0.22393 -0.620117,0.10335 -1.29191,0.10335 -0.990465,0 -1.834513,-0.24115 -0.835436,-0.23255 -1.524455,-0.65457 -0.680406,-0.42203 -1.205783,-1.00769 -0.516765,-0.58567 -0.8785,-1.27469 -0.353122,-0.68902 -0.533989,-1.46416 -0.180868,-0.77515 -0.180868,-1.58475 0,-1.36942 0.447862,-2.5063 0.447863,-1.13688 1.25746,-1.94648 0.809598,-0.81821 1.946479,-1.26607 1.136881,-0.45648 2.523532,-0.45648 0.430637,0 0.826823,0.0517 0.404799,0.0431 0.81821,0.12919 0.413412,0.0861 0.869887,0.21532 0.456475,0.12919 0.990465,0.29283 v 2.76469 h -1.059367 l -0.258382,-1.60197 q -0.03445,-0.14642 -0.129191,-0.24977 -0.09474,-0.11197 -0.172255,-0.15503 l -0.0689,-0.0344 q -0.111966,-0.0517 -0.28422,-0.12058 -0.172255,-0.0775 -0.396186,-0.1378 -0.215319,-0.0689 -0.482314,-0.11197 -0.266995,-0.0517 -0.56844,-0.0517 -0.904338,0 -1.679484,0.33589 -0.775147,0.3359 -1.343587,0.99047 -0.568441,0.65457 -0.895725,1.6278 -0.318671,0.96463 -0.318671,2.2307 0,1.23163 0.301445,2.20486 0.310059,0.97324 0.887112,1.65365 0.577054,0.68041 1.403877,1.04214 0.826823,0.35312 1.877577,0.35312 0.310058,0 0.559828,-0.0431 0.258382,-0.0431 0.447862,-0.0947 0.18948,-0.0603 0.292833,-0.10335 0.103353,-0.0517 0.120578,-0.0603 0.137804,-0.0517 0.223932,-0.14642 0.08613,-0.0947 0.111965,-0.2067 l 0.404799,-1.92064 h 1.024916 z"
         style="font-style:normal;font-variant:normal;font-weight:normal;font-stretch:normal;font-size:17.63888741px;line-height:200%;font-family:'Abyssinica SIL';-inkscape-font-specification:'Abyssinica SIL';baseline-shift:super;stroke-width:1.65311599px"
         id="path183" />
    </g>
  </g>
</svg>
